<?xml version="1.0" encoding="UTF-8"?>
<svg width="512" height="512" viewBox="0 0 512 512" xmlns="http://www.w3.org/2000/svg" role="img" aria-label="VibeCaas.ai icon">
  <defs>
    <linearGradient id="g" x1="0" y1="0" x2="1" y2="1">
      <stop offset="0%" stop-color="#7b58ff"/>
      <stop offset="100%" stop-color="#5a3ef0"/>
    </linearGradient>
  </defs>
  <circle cx="256" cy="256" r="248" fill="url(#g)"/>
  <!-- Left brace (simplified) -->
  <path fill="#0b061e" d="M184 128c-28 0-48 20-48 48v32c0 18-10 30-28 34v28c18 4 28 16 28 34v32c0 28 20 48 48 48h20v-40h-8c-12 0-20-8-20-20v-32c0-26-12-44-36-52 24-8 36-26 36-52v-32c0-12 8-20 20-20h8v-40h-20z"/>
  <!-- Music note -->
  <path fill="#0b061e" d="M272 168v168c-10-3-22-4-32-3-40 3-72 28-72 60s32 56 72 56c54 0 96-36 96-80V274l54 34c22 14 34 32 34 56 0 20-8 38-22 52-5 6-2 14 6 14 6 0 14-3 24-12 26-22 40-50 40-82 0-40-18-68-54-94l-104-84c-20-16-42-2-42 14z"/>
</svg>
<svg xmlns="http://www.w3.org/2000/svg" viewBox="0 0 24 24" fill="currentColor">
  <path d="M4 12a8 8 0 1 1 3.293 6.293L4 20l1.707-3.293A7.97 7.97 0 0 1 4 12zm8-5a1 1 0 0 0-1 1v5l4 2 .5-1-3.5-1.75V8a1 1 0 0 0-1-1z"/>
</svg>

